<?xml version="1.0" encoding="UTF-8"?>
<!DOCTYPE svg PUBLIC "-//W3C//DTD SVG 1.1//EN" "http://www.w3.org/Graphics/SVG/1.1/DTD/svg11.dtd">
<svg xmlns="http://www.w3.org/2000/svg" version="1.1" width="1920px" height="1920px" style="shape-rendering:geometricPrecision; text-rendering:geometricPrecision; image-rendering:optimizeQuality; fill-rule:evenodd; clip-rule:evenodd" xmlns:xlink="http://www.w3.org/1999/xlink">
<g><path style="opacity:1" fill="#fefefe" d="M -0.5,-0.5 C 639.5,-0.5 1279.5,-0.5 1919.5,-0.5C 1919.5,639.5 1919.5,1279.5 1919.5,1919.5C 1279.5,1919.5 639.5,1919.5 -0.5,1919.5C -0.5,1279.5 -0.5,639.5 -0.5,-0.5 Z"/></g>
<g><path style="opacity:1" fill="#5d6466" d="M 947.5,569.5 C 938.347,570.589 929.014,571.256 919.5,571.5C 928.607,569.775 937.94,569.108 947.5,569.5 Z"/></g>
<g><path style="opacity:1" fill="#29353b" d="M 947.5,569.5 C 1082.71,569.025 1191.87,621.692 1275,727.5C 1353.95,838.786 1372.95,959.786 1332,1090.5C 1312.25,1147.34 1281.41,1197.01 1239.5,1239.5C 1235.17,1243.17 1231.17,1247.17 1227.5,1251.5C 1127.58,1339.42 1011.58,1371.92 879.5,1349C 750.42,1318.73 657.253,1243.9 600,1124.5C 555.645,1020.33 554.312,915.664 596,810.5C 642.854,704.31 720.688,631.144 829.5,591C 858.718,580.85 888.718,574.35 919.5,571.5C 929.014,571.256 938.347,570.589 947.5,569.5 Z"/></g>
<g><path style="opacity:1" fill="#bec0c0" d="M 1222.5,1190.5 C 1279.53,1104.19 1297.36,1010.19 1276,908.5C 1260.78,845.694 1230.78,791.361 1186,745.5C 1185.6,745.728 1185.43,746.062 1185.5,746.5C 1183.74,745.738 1182.74,744.404 1182.5,742.5C 1104.84,667.77 1011.84,634.27 903.5,642C 820.801,651.027 749.801,684.194 690.5,741.5C 751.7,669.056 829.7,627.223 924.5,616C 1047.97,607.508 1149.81,650.008 1230,743.5C 1291.24,820.924 1316.24,908.924 1305,1007.5C 1295.3,1076.88 1267.8,1137.88 1222.5,1190.5 Z"/></g>
<g><path style="opacity:1" fill="#fefefe" d="M 1182.5,742.5 C 1173.74,735.739 1164.4,734.906 1154.5,740C 1101.83,792.667 1049.17,845.333 996.5,898C 962.069,882.156 931.235,887.323 904,913.5C 897.684,920.464 893.184,928.464 890.5,937.5C 848.873,931.755 807.206,926.588 765.5,922C 749.54,928.096 744.54,939.262 750.5,955.5C 744.426,974.477 751.093,985.977 770.5,990C 809.951,994.848 849.284,1000.35 888.5,1006.5C 902.136,1042.99 928.469,1060.49 967.5,1059C 1012.1,1049.57 1033.77,1022.07 1032.5,976.5C 1033.61,967.821 1033.61,959.155 1032.5,950.5C 1032.35,949.448 1032.52,948.448 1033,947.5C 1083.67,896.833 1134.33,846.167 1185,795.5C 1190.12,787.627 1190.62,779.627 1186.5,771.5C 1189.48,762.951 1189.14,754.618 1185.5,746.5C 1185.43,746.062 1185.6,745.728 1186,745.5C 1230.78,791.361 1260.78,845.694 1276,908.5C 1297.36,1010.19 1279.53,1104.19 1222.5,1190.5C 1161.98,1259.77 1085.65,1299.6 993.5,1310C 871.09,1318.69 769.923,1276.86 690,1184.5C 628.12,1106.97 602.453,1018.64 613,919.5C 622.114,852.581 647.948,793.247 690.5,741.5C 749.801,684.194 820.801,651.027 903.5,642C 1011.84,634.27 1104.84,667.77 1182.5,742.5 Z"/></g>
<g><path style="opacity:1" fill="#29353b" d="M 965.5,726.5 C 950.845,728.433 941.345,722.433 937,708.5C 936.5,693.504 936.333,678.504 936.5,663.5C 943.752,647.692 955.418,643.192 971.5,650C 974.704,652.869 977.537,656.035 980,659.5C 981.624,676.767 981.958,694.1 981,711.5C 977.894,718.775 972.728,723.775 965.5,726.5 Z"/></g>
<g><path style="opacity:1" fill="#bec0c0" d="M 936.5,663.5 C 936.333,678.504 936.5,693.504 937,708.5C 941.345,722.433 950.845,728.433 965.5,726.5C 961.67,736.43 954.337,741.43 943.5,741.5C 933.83,740.997 926.996,736.331 923,727.5C 921.394,711.22 921.061,694.887 922,678.5C 924.318,671.016 929.151,666.016 936.5,663.5 Z"/></g>
<g><path style="opacity:1" fill="#29363b" d="M 1182.5,742.5 C 1182.74,744.404 1183.74,745.738 1185.5,746.5C 1189.14,754.618 1189.48,762.951 1186.5,771.5C 1133.37,825.127 1080.04,878.627 1026.5,932C 1029.04,938.119 1031.04,944.286 1032.5,950.5C 1033.61,959.155 1033.61,967.821 1032.5,976.5C 1019.66,1019.61 990.662,1039.44 945.5,1036C 916.291,1029.12 896.958,1011.46 887.5,983C 847.866,977.421 808.2,972.087 768.5,967C 760.641,965.913 754.641,962.08 750.5,955.5C 744.54,939.262 749.54,928.096 765.5,922C 807.206,926.588 848.873,931.755 890.5,937.5C 893.184,928.464 897.684,920.464 904,913.5C 931.235,887.323 962.069,882.156 996.5,898C 1049.17,845.333 1101.83,792.667 1154.5,740C 1164.4,734.906 1173.74,735.739 1182.5,742.5 Z"/></g>
<g><path style="opacity:1" fill="#bfc1c1" d="M 1186.5,771.5 C 1190.62,779.627 1190.12,787.627 1185,795.5C 1134.33,846.167 1083.67,896.833 1033,947.5C 1032.52,948.448 1032.35,949.448 1032.5,950.5C 1031.04,944.286 1029.04,938.119 1026.5,932C 1080.04,878.627 1133.37,825.127 1186.5,771.5 Z"/></g>
<g><path style="opacity:1" fill="#bec0c0" d="M 985.5,973.5 C 974.84,956.34 960.507,952.507 942.5,962C 938.053,965.257 935.053,969.424 933.5,974.5C 927.734,958.636 932.067,946.136 946.5,937C 960.202,932.218 972.036,935.051 982,945.5C 987.864,954.226 989.031,963.559 985.5,973.5 Z"/></g>
<g><path style="opacity:1" fill="#28353b" d="M 710.5,984.5 C 692.478,985.986 674.478,985.819 656.5,984C 645.525,977.887 641.192,968.721 643.5,956.5C 646.37,948.797 651.704,943.63 659.5,941C 676.5,940.333 693.5,940.333 710.5,941C 726.084,948.338 730.25,959.838 723,975.5C 719.818,979.846 715.651,982.846 710.5,984.5 Z"/></g>
<g><path style="opacity:1" fill="#28353b" d="M 1259.5,984.5 C 1251.58,985.152 1243.58,985.485 1235.5,985.5C 1226.76,985.623 1218.09,985.123 1209.5,984C 1198.4,978.3 1193.73,969.133 1195.5,956.5C 1198.29,948.878 1203.62,943.711 1211.5,941C 1228.22,940.059 1244.89,940.393 1261.5,942C 1275.45,949.849 1278.95,961.015 1272,975.5C 1268.77,979.911 1264.6,982.911 1259.5,984.5 Z"/></g>
<g><path style="opacity:1" fill="#fbfbfb" d="M 985.5,973.5 C 980.507,985.085 971.673,991.085 959,991.5C 946.859,991.178 938.359,985.511 933.5,974.5C 935.053,969.424 938.053,965.257 942.5,962C 960.507,952.507 974.84,956.34 985.5,973.5 Z"/></g>
<g><path style="opacity:1" fill="#bfc1c0" d="M 1195.5,956.5 C 1193.73,969.133 1198.4,978.3 1209.5,984C 1218.09,985.123 1226.76,985.623 1235.5,985.5C 1243.58,985.485 1251.58,985.152 1259.5,984.5C 1256.44,993.058 1250.44,998.224 1241.5,1000C 1225.43,1000.95 1209.43,1000.62 1193.5,999C 1179.14,989.325 1176.64,977.158 1186,962.5C 1188.8,959.853 1191.97,957.853 1195.5,956.5 Z"/></g>
<g><path style="opacity:1" fill="#bfc1c0" d="M 643.5,956.5 C 641.192,968.721 645.525,977.887 656.5,984C 674.478,985.819 692.478,985.986 710.5,984.5C 708.233,993.262 702.567,998.429 693.5,1000C 676.1,1000.96 658.767,1000.62 641.5,999C 632.845,994.697 628.178,987.697 627.5,978C 628.109,967.271 633.442,960.104 643.5,956.5 Z"/></g>
<g><path style="opacity:1" fill="#bec1c0" d="M 750.5,955.5 C 754.641,962.08 760.641,965.913 768.5,967C 808.2,972.087 847.866,977.421 887.5,983C 896.958,1011.46 916.291,1029.12 945.5,1036C 990.662,1039.44 1019.66,1019.61 1032.5,976.5C 1033.77,1022.07 1012.1,1049.57 967.5,1059C 928.469,1060.49 902.136,1042.99 888.5,1006.5C 849.284,1000.35 809.951,994.848 770.5,990C 751.093,985.977 744.426,974.477 750.5,955.5 Z"/></g>
<g><path style="opacity:1" fill="#29363b" d="M 965.5,1278.5 C 953,1281.33 943.833,1277 938,1265.5C 936.554,1247.56 936.054,1229.56 936.5,1211.5C 944.736,1194.92 957.069,1191.09 973.5,1200C 976.273,1202.38 978.439,1205.22 980,1208.5C 981.627,1226.77 981.96,1245.1 981,1263.5C 977.926,1270.74 972.759,1275.74 965.5,1278.5 Z"/></g>
<g><path style="opacity:1" fill="#bec0c0" d="M 936.5,1211.5 C 936.054,1229.56 936.554,1247.56 938,1265.5C 943.833,1277 953,1281.33 965.5,1278.5C 957.902,1294.49 946.235,1298.32 930.5,1290C 927.386,1286.94 924.886,1283.44 923,1279.5C 921.376,1262.23 921.042,1244.9 922,1227.5C 924.338,1219.77 929.172,1214.44 936.5,1211.5 Z"/></g>
<g><path style="opacity:1" fill="#bcc0c2" d="M 1239.5,1239.5 C 1237.02,1243.76 1234.02,1247.76 1230.5,1251.5C 1229.58,1252.56 1228.58,1252.56 1227.5,1251.5C 1231.17,1247.17 1235.17,1243.17 1239.5,1239.5 Z"/></g>
</svg>
